/* XPM */
static char *_67e97ca0d1941b5ed7f9ae8f92c8283GEIUFZ9J2Pj3qro2[] = {
/* columns rows colors chars-per-pixel */
"23 30 2 1 ",
"  c None",
". c #683E0E",
/* pixels */
"           .           ",
"          ...          ",
"          ...          ",
"          ...          ",
"         .....         ",
"         .....         ",
"         .....         ",
"        .......        ",
"        .......        ",
"        ........       ",
"       .........       ",
"       .........       ",
"      ...........      ",
"      ...........      ",
"      ...........      ",
"     .............     ",
"     .............     ",
"    ..............     ",
"    ...............    ",
"    ...............    ",
"   .................   ",
"   .................   ",
"   .................   ",
"  ...................  ",
"  ......... .........  ",
"  .......     .......  ",
" ......         ...... ",
" ....             .... ",
"  .                 .  ",
"                       "
};
